<svg width="78" height="18" viewBox="0 0 78 18" fill="none" xmlns="http://www.w3.org/2000/svg">
<path d="M22.804 13.744L22.144 12.916C21.96 13.004 21.736 13.072 21.472 13.12C21.216 13.168 20.932 13.192 20.62 13.192C19.78 13.192 19.052 13.004 18.436 12.628C17.82 12.244 17.344 11.72 17.008 11.056C16.672 10.384 16.504 9.616 16.504 8.752C16.504 7.904 16.66 7.144 16.972 6.472C17.292 5.8 17.756 5.268 18.364 4.876C18.98 4.484 19.732 4.288 20.62 4.288C21.508 4.288 22.256 4.484 22.864 4.876C23.48 5.268 23.944 5.8 24.256 6.472C24.568 7.144 24.724 7.904 24.724 8.752C24.724 9.544 24.588 10.24 24.316 10.84C24.052 11.44 23.672 11.94 23.176 12.34L24.304 13.744H22.804ZM20.62 11.656C20.724 11.656 20.82 11.652 20.908 11.644C20.996 11.628 21.08 11.604 21.16 11.572L19.972 10.12H21.484L22.108 10.948C22.348 10.724 22.528 10.436 22.648 10.084C22.776 9.724 22.84 9.28 22.84 8.752C22.84 8.232 22.76 7.752 22.6 7.312C22.448 6.864 22.208 6.504 21.88 6.232C21.552 5.96 21.132 5.824 20.62 5.824C20.1 5.824 19.676 5.96 19.348 6.232C19.02 6.504 18.776 6.864 18.616 7.312C18.464 7.752 18.388 8.232 18.388 8.752C18.388 9.264 18.464 9.744 18.616 10.192C18.776 10.632 19.02 10.988 19.348 11.26C19.684 11.524 20.108 11.656 20.62 11.656ZM28.1267 13.144C27.4627 13.144 26.9427 12.932 26.5667 12.508C26.1987 12.076 26.0147 11.476 26.0147 10.708V6.568H27.8147V10.288C27.8147 10.784 27.8907 11.148 28.0427 11.38C28.1947 11.604 28.4347 11.716 28.7627 11.716C29.1307 11.716 29.4147 11.592 29.6147 11.344C29.8227 11.088 29.9267 10.708 29.9267 10.204V6.568H31.7267V13H30.0827L30.0347 11.152L30.2627 11.2C30.1667 11.84 29.9387 12.324 29.5787 12.652C29.2187 12.98 28.7347 13.144 28.1267 13.144ZM33.21 13V6.568H35.01V13H33.21ZM33.174 5.776V4.336H35.034V5.776H33.174ZM36.465 13V11.584L40.005 7.912H36.609V6.568H42.165V7.984L38.565 11.656H42.261V13H36.465ZM43.7474 13V4.48H46.1834L48.3554 10.684L50.5154 4.48H52.9514V13H51.1274V7.48L49.1234 12.976H47.5634L45.5714 7.48V13H43.7474ZM57.4067 13.144C56.7507 13.144 56.1787 13.008 55.6907 12.736C55.2107 12.456 54.8347 12.064 54.5627 11.56C54.2987 11.056 54.1667 10.464 54.1667 9.784C54.1667 9.104 54.2987 8.516 54.5627 8.02C54.8347 7.516 55.2107 7.124 55.6907 6.844C56.1707 6.564 56.7387 6.424 57.3947 6.424C58.0347 6.424 58.5907 6.564 59.0627 6.844C59.5347 7.124 59.8987 7.524 60.1547 8.044C60.4187 8.564 60.5507 9.184 60.5507 9.904V10.264H56.0267C56.0507 10.776 56.1867 11.156 56.4347 11.404C56.6907 11.652 57.0267 11.776 57.4427 11.776C57.7467 11.776 57.9987 11.712 58.1987 11.584C58.4067 11.456 58.5547 11.26 58.6427 10.996L60.4547 11.104C60.2867 11.744 59.9307 12.244 59.3867 12.604C58.8427 12.964 58.1827 13.144 57.4067 13.144ZM56.0267 9.16H58.7027C58.6787 8.688 58.5467 8.336 58.3067 8.104C58.0747 7.872 57.7707 7.756 57.3947 7.756C57.0187 7.756 56.7067 7.88 56.4587 8.128C56.2187 8.368 56.0747 8.712 56.0267 9.16ZM64.1279 13C63.4639 13 62.9759 12.848 62.6639 12.544C62.3519 12.232 62.1959 11.74 62.1959 11.068V5.056H63.9959V10.852C63.9959 11.164 64.0599 11.376 64.1879 11.488C64.3239 11.6 64.5239 11.656 64.7879 11.656H65.6879V13H64.1279ZM61.1639 7.912V6.568H65.6879V7.912H61.1639ZM69.5356 13.144C68.8796 13.144 68.3076 13.008 67.8196 12.736C67.3396 12.456 66.9636 12.064 66.6916 11.56C66.4276 11.056 66.2956 10.464 66.2956 9.784C66.2956 9.104 66.4276 8.516 66.6916 8.02C66.9636 7.516 67.3396 7.124 67.8196 6.844C68.2996 6.564 68.8676 6.424 69.5236 6.424C70.1636 6.424 70.7196 6.564 71.1916 6.844C71.6636 7.124 72.0276 7.524 72.2836 8.044C72.5476 8.564 72.6796 9.184 72.6796 9.904V10.264H68.1556C68.1796 10.776 68.3156 11.156 68.5636 11.404C68.8196 11.652 69.1556 11.776 69.5716 11.776C69.8756 11.776 70.1276 11.712 70.3276 11.584C70.5356 11.456 70.6836 11.26 70.7716 10.996L72.5836 11.104C72.4156 11.744 72.0596 12.244 71.5156 12.604C70.9716 12.964 70.3116 13.144 69.5356 13.144ZM68.1556 9.16H70.8316C70.8076 8.688 70.6756 8.336 70.4356 8.104C70.2036 7.872 69.8996 7.756 69.5236 7.756C69.1476 7.756 68.8356 7.88 68.5876 8.128C68.3476 8.368 68.2036 8.712 68.1556 9.16ZM73.792 13V6.568H75.496L75.556 8.44L75.424 8.404C75.528 7.756 75.712 7.288 75.976 7C76.24 6.712 76.604 6.568 77.068 6.568H77.656V8.056H77.068C76.732 8.056 76.456 8.1 76.24 8.188C76.024 8.276 75.86 8.416 75.748 8.608C75.644 8.8 75.592 9.06 75.592 9.388V13H73.792Z" fill="#2F5DF4"/>
<path d="M22.804 13.744L22.144 12.916C21.96 13.004 21.736 13.072 21.472 13.12C21.216 13.168 20.932 13.192 20.62 13.192C19.78 13.192 19.052 13.004 18.436 12.628C17.82 12.244 17.344 11.72 17.008 11.056C16.672 10.384 16.504 9.616 16.504 8.752C16.504 7.904 16.66 7.144 16.972 6.472C17.292 5.8 17.756 5.268 18.364 4.876C18.98 4.484 19.732 4.288 20.62 4.288C21.508 4.288 22.256 4.484 22.864 4.876C23.48 5.268 23.944 5.8 24.256 6.472C24.568 7.144 24.724 7.904 24.724 8.752C24.724 9.544 24.588 10.24 24.316 10.84C24.052 11.44 23.672 11.94 23.176 12.34L24.304 13.744H22.804ZM20.62 11.656C20.724 11.656 20.82 11.652 20.908 11.644C20.996 11.628 21.08 11.604 21.16 11.572L19.972 10.12H21.484L22.108 10.948C22.348 10.724 22.528 10.436 22.648 10.084C22.776 9.724 22.84 9.28 22.84 8.752C22.84 8.232 22.76 7.752 22.6 7.312C22.448 6.864 22.208 6.504 21.88 6.232C21.552 5.96 21.132 5.824 20.62 5.824C20.1 5.824 19.676 5.96 19.348 6.232C19.02 6.504 18.776 6.864 18.616 7.312C18.464 7.752 18.388 8.232 18.388 8.752C18.388 9.264 18.464 9.744 18.616 10.192C18.776 10.632 19.02 10.988 19.348 11.26C19.684 11.524 20.108 11.656 20.62 11.656ZM28.1267 13.144C27.4627 13.144 26.9427 12.932 26.5667 12.508C26.1987 12.076 26.0147 11.476 26.0147 10.708V6.568H27.8147V10.288C27.8147 10.784 27.8907 11.148 28.0427 11.38C28.1947 11.604 28.4347 11.716 28.7627 11.716C29.1307 11.716 29.4147 11.592 29.6147 11.344C29.8227 11.088 29.9267 10.708 29.9267 10.204V6.568H31.7267V13H30.0827L30.0347 11.152L30.2627 11.2C30.1667 11.84 29.9387 12.324 29.5787 12.652C29.2187 12.98 28.7347 13.144 28.1267 13.144ZM33.21 13V6.568H35.01V13H33.21ZM33.174 5.776V4.336H35.034V5.776H33.174ZM36.465 13V11.584L40.005 7.912H36.609V6.568H42.165V7.984L38.565 11.656H42.261V13H36.465ZM43.7474 13V4.48H46.1834L48.3554 10.684L50.5154 4.48H52.9514V13H51.1274V7.48L49.1234 12.976H47.5634L45.5714 7.48V13H43.7474ZM57.4067 13.144C56.7507 13.144 56.1787 13.008 55.6907 12.736C55.2107 12.456 54.8347 12.064 54.5627 11.56C54.2987 11.056 54.1667 10.464 54.1667 9.784C54.1667 9.104 54.2987 8.516 54.5627 8.02C54.8347 7.516 55.2107 7.124 55.6907 6.844C56.1707 6.564 56.7387 6.424 57.3947 6.424C58.0347 6.424 58.5907 6.564 59.0627 6.844C59.5347 7.124 59.8987 7.524 60.1547 8.044C60.4187 8.564 60.5507 9.184 60.5507 9.904V10.264H56.0267C56.0507 10.776 56.1867 11.156 56.4347 11.404C56.6907 11.652 57.0267 11.776 57.4427 11.776C57.7467 11.776 57.9987 11.712 58.1987 11.584C58.4067 11.456 58.5547 11.26 58.6427 10.996L60.4547 11.104C60.2867 11.744 59.9307 12.244 59.3867 12.604C58.8427 12.964 58.1827 13.144 57.4067 13.144ZM56.0267 9.16H58.7027C58.6787 8.688 58.5467 8.336 58.3067 8.104C58.0747 7.872 57.7707 7.756 57.3947 7.756C57.0187 7.756 56.7067 7.88 56.4587 8.128C56.2187 8.368 56.0747 8.712 56.0267 9.16ZM64.1279 13C63.4639 13 62.9759 12.848 62.6639 12.544C62.3519 12.232 62.1959 11.74 62.1959 11.068V5.056H63.9959V10.852C63.9959 11.164 64.0599 11.376 64.1879 11.488C64.3239 11.6 64.5239 11.656 64.7879 11.656H65.6879V13H64.1279ZM61.1639 7.912V6.568H65.6879V7.912H61.1639ZM69.5356 13.144C68.8796 13.144 68.3076 13.008 67.8196 12.736C67.3396 12.456 66.9636 12.064 66.6916 11.56C66.4276 11.056 66.2956 10.464 66.2956 9.784C66.2956 9.104 66.4276 8.516 66.6916 8.02C66.9636 7.516 67.3396 7.124 67.8196 6.844C68.2996 6.564 68.8676 6.424 69.5236 6.424C70.1636 6.424 70.7196 6.564 71.1916 6.844C71.6636 7.124 72.0276 7.524 72.2836 8.044C72.5476 8.564 72.6796 9.184 72.6796 9.904V10.264H68.1556C68.1796 10.776 68.3156 11.156 68.5636 11.404C68.8196 11.652 69.1556 11.776 69.5716 11.776C69.8756 11.776 70.1276 11.712 70.3276 11.584C70.5356 11.456 70.6836 11.26 70.7716 10.996L72.5836 11.104C72.4156 11.744 72.0596 12.244 71.5156 12.604C70.9716 12.964 70.3116 13.144 69.5356 13.144ZM68.1556 9.16H70.8316C70.8076 8.688 70.6756 8.336 70.4356 8.104C70.2036 7.872 69.8996 7.756 69.5236 7.756C69.1476 7.756 68.8356 7.88 68.5876 8.128C68.3476 8.368 68.2036 8.712 68.1556 9.16ZM73.792 13V6.568H75.496L75.556 8.44L75.424 8.404C75.528 7.756 75.712 7.288 75.976 7C76.24 6.712 76.604 6.568 77.068 6.568H77.656V8.056H77.068C76.732 8.056 76.456 8.1 76.24 8.188C76.024 8.276 75.86 8.416 75.748 8.608C75.644 8.8 75.592 9.06 75.592 9.388V13H73.792Z" fill="black" fill-opacity="0.2"/>
<g clip-path="url(#clip0_2006_2)">
<path d="M10.7546 16.7251C12.5565 16.6614 14.3148 15.9779 15.7201 14.6962L14.6894 14.2077C13.5724 15.1578 12.111 15.6337 10.681 15.6714L10.7546 16.7251Z" fill="url(#paint0_linear_2006_2)"/>
<path d="M5.32166 14.7381C6.65233 15.953 8.32017 16.6461 10.0686 16.7107L9.99489 15.657C8.48992 15.5131 7.14066 14.9224 6.01335 13.9424L5.32166 14.7381Z" fill="url(#paint1_linear_2006_2)"/>
<path d="M2.73492 9.81178C2.90954 11.419 3.64207 12.9871 4.79103 14.277L5.48293 13.4812C4.53279 12.3643 3.94583 11.0974 3.78855 9.7381L2.73492 9.81178Z" fill="url(#paint2_linear_2006_2)"/>
<path d="M4.09756 4.36021C3.1393 5.79746 2.63215 7.45228 2.68291 9.06813L3.73653 8.99445C3.70311 7.62653 4.10804 6.29027 4.89349 5.05196L4.09756 4.36021Z" fill="url(#paint3_linear_2006_2)"/>
<path d="M8.98505 1.2156C7.3246 1.51857 5.7075 2.44134 4.55886 3.82963L5.35457 4.52139C6.33018 3.33207 7.64624 2.55491 9.05873 2.26928L8.98505 1.2156Z" fill="url(#paint4_linear_2006_2)"/>
<path d="M14.862 2.4241C13.292 1.3505 11.4557 0.918358 9.66248 1.10602L9.73617 2.1597C11.1575 1.99802 12.609 2.27023 13.9093 3.05126L14.862 2.4241Z" fill="url(#paint5_linear_2006_2)"/>
<path d="M10.7928 13.2036C10.1303 13.2499 9.51102 13.1798 8.93483 12.9933C8.35916 12.8142 7.85737 12.542 7.42948 12.177C6.99444 11.8124 6.64549 11.3724 6.38262 10.8568C6.12026 10.3485 5.9678 9.78861 5.92505 9.17718C5.88229 8.56576 5.95509 7.98649 6.14365 7.43933C6.33272 6.89946 6.61728 6.41876 6.99735 5.9972C7.37027 5.57615 7.82905 5.23319 8.37367 4.96836C8.91881 4.7108 9.5226 4.55886 10.1851 4.51254C10.8546 4.46572 11.4775 4.53188 12.0531 4.71106C12.6222 4.89802 13.1205 5.17405 13.5484 5.53911C13.9762 5.90417 14.3212 6.34086 14.5835 6.84916C14.8464 7.36475 14.9991 7.92825 15.0419 8.53967C15.0846 9.1511 15.0116 9.72674 14.8225 10.2666C14.6339 10.8138 14.3534 11.2978 13.9805 11.7189C13.6076 12.1399 13.1523 12.479 12.6143 12.736C12.0697 13.0009 11.4624 13.1567 10.7928 13.2036ZM10.6477 11.1291C10.9608 11.1072 11.2551 11.0281 11.5308 10.8918C11.7997 10.7632 12.0327 10.5897 12.2295 10.3711C12.4263 10.1525 12.577 9.90063 12.6814 9.61539C12.7857 9.33015 12.8265 9.02374 12.8036 8.69619C12.7807 8.36864 12.6976 8.07089 12.5546 7.80295C12.4116 7.535 12.2273 7.30651 12.002 7.11746C11.7767 6.9284 11.5215 6.78533 11.2369 6.6882C10.9454 6.59887 10.6432 6.56513 10.3301 6.58702C10.017 6.60892 9.72606 6.68413 9.45717 6.81265C9.18145 6.94897 8.94508 7.1264 8.74831 7.34498C8.5442 7.56405 8.38988 7.81623 8.28554 8.10147C8.18122 8.38671 8.14041 8.69312 8.16331 9.02067C8.18622 9.34822 8.26927 9.64597 8.41228 9.91391C8.5553 10.1819 8.74321 10.4101 8.97583 10.5986C9.2011 10.7877 9.45961 10.9269 9.75112 11.0162C10.0358 11.1133 10.3347 11.151 10.6477 11.1291Z" fill="black"/>
</g>
<defs>
<linearGradient id="paint0_linear_2006_2" x1="-613.269" y1="60.3658" x2="-722.554" y2="-1502.48" gradientUnits="userSpaceOnUse">
<stop stop-color="#1E90FF"/>
<stop offset="1" stop-color="#FF1E56"/>
</linearGradient>
<linearGradient id="paint1_linear_2006_2" x1="-42.1465" y1="27.0571" x2="-151.431" y2="-1535.79" gradientUnits="userSpaceOnUse">
<stop offset="0.711538" stop-color="#2C82D5"/>
<stop offset="0.903846" stop-color="#FF1E56"/>
</linearGradient>
<linearGradient id="paint2_linear_2006_2" x1="406.679" y1="273.146" x2="297.395" y2="-1289.7" gradientUnits="userSpaceOnUse">
<stop stop-color="#1E90FF"/>
<stop offset="1" stop-color="#FF1E56"/>
</linearGradient>
<linearGradient id="paint3_linear_2006_2" x1="443.58" y1="800.851" x2="334.295" y2="-761.994" gradientUnits="userSpaceOnUse">
<stop offset="0.317308" stop-color="#1E90FF"/>
<stop offset="1" stop-color="#FF1E56"/>
</linearGradient>
<linearGradient id="paint4_linear_2006_2" x1="44.0982" y1="1260.41" x2="-65.1866" y2="-302.432" gradientUnits="userSpaceOnUse">
<stop offset="0.730769" stop-color="#1E90FF"/>
<stop offset="1" stop-color="#FF1E56"/>
</linearGradient>
<linearGradient id="paint5_linear_2006_2" x1="-520.556" y1="1386.22" x2="-629.841" y2="-176.622" gradientUnits="userSpaceOnUse">
<stop offset="0.831731" stop-color="#1E90FF"/>
<stop offset="1" stop-color="#FF1E56"/>
</linearGradient>
<clipPath id="clip0_2006_2">
<rect width="16" height="16" fill="white" transform="translate(0.461456 1.57755) rotate(-4)"/>
</clipPath>
</defs>
</svg>
